<?xml version="1.0" encoding="UTF-8"?>
<svg width="209px" height="55px" viewBox="0 0 209 55" version="1.1" xmlns="http://www.w3.org/2000/svg" xmlns:xlink="http://www.w3.org/1999/xlink">
    <!-- Generator: Sketch 57.1 (83088) - https://sketch.com -->
    <title>Group</title>
    <desc>Created with Sketch.</desc>
    <defs>
        <polygon id="path-1" points="0.0995656332 0 40.9004344 0 40.9004344 54.978 0.0995656332 54.978"></polygon>
        <filter x="-138.9%" y="-128.2%" width="377.8%" height="356.4%" filterUnits="objectBoundingBox" id="filter-3">
            <feOffset dx="0" dy="10" in="SourceAlpha" result="shadowOffsetOuter1"></feOffset>
            <feGaussianBlur stdDeviation="8" in="shadowOffsetOuter1" result="shadowBlurOuter1"></feGaussianBlur>
            <feColorMatrix values="0 0 0 0 0.284646739   0 0 0 0 0.284646739   0 0 0 0 0.284646739  0 0 0 0.1 0" type="matrix" in="shadowBlurOuter1" result="shadowMatrixOuter1"></feColorMatrix>
            <feMerge>
                <feMergeNode in="shadowMatrixOuter1"></feMergeNode>
                <feMergeNode in="SourceGraphic"></feMergeNode>
            </feMerge>
        </filter>
    </defs>
    <g id="Current-Screens" stroke="none" stroke-width="1" fill="none" fill-rule="evenodd">
        <g id="Onboarding-1" transform="translate(-83.000000, -48.000000)">
            <g id="Group" transform="translate(83.000000, 48.000000)">
                <g id="Group-3">
                    <mask id="mask-2" fill="white">
                        <use xlink:href="#path-1"></use>
                    </mask>
                    <g id="Clip-2"></g>
                    <path d="M20.6017321,0.0352 C20.6017321,0.0352 20.5366236,-0.0117333333 20.5051791,0.00256666667 C20.4685555,-0.0117333333 20.3990078,0.0399666667 20.3990078,0.0399666667 C12.8822989,2.88493333 5.45807381,3.98053333 2.04468375,3.85843333 C1.00812594,3.8247 0.0995656332,4.59396667 0.0995656332,5.6232 L0.0995656332,32.7121667 C0.0995656332,38.6023 5.32748676,43.2171667 10.7581323,46.5663 C14.3849748,48.8011333 18.0898736,52.0182667 20.3990078,54.8724 C20.3990078,54.8724 20.4685555,55.0344667 20.5003699,54.9930333 C20.5329242,55.0344667 20.6017321,54.8731333 20.6017321,54.8731333 C22.9855931,51.9299 26.8591823,48.6651 30.5966354,46.3466667 C35.8966938,43.0576667 40.9004344,38.5993667 40.9004344,32.7121667 L40.9004344,5.6232 C40.9004344,4.60423333 40.0392257,3.806 39.0126562,3.82726667 C35.6828714,3.89766667 28.3844242,2.73056667 20.6017321,0.0352" id="Fill-1" fill="#848B8D" mask="url(#mask-2)"></path>
                    <path d="M5.00075276,8 L5.00075276,11.0971729 L5,11.0971729 L5,30.757138 C5,30.7937433 5.00338742,30.8310807 5.00526932,30.8640255 L5.00526932,30.8629273 C5.06210271,36.05136 9.19212111,38.843977 13.4617765,41.4001239 L13.4617765,41.4026863 C14.411007,41.9700681 15.3647541,42.5272005 16.2861325,43.0945824 C18.194003,44.2740046 19.9509451,45.5043082 21.1621362,47 L21.1628889,47 C21.192623,46.9637608 21.2231097,46.9300839 21.2532201,46.8931126 L21.2535965,46.8931126 C25.7554784,41.4960297 37.3223904,39.5281298 37.3223904,30.757138 L37.3284125,30.757138 L37.3284125,13.4593118 L41,8 L5.00075276,8" id="Fill-4" fill="#FFFFFE" mask="url(#mask-2)"></path>
                    <g id="Fusionetics-Badge" filter="url(#filter-3)" mask="url(#mask-2)">
                        <g transform="translate(5.000000, 8.000000)">
                            <path d="M0.00075276012,0 L0.00075276012,3.09717295 L0,3.09717295 L0,22.757138 C0,22.7937433 0.00338742054,22.8310807 0.00526932084,22.8640255 L0.00526932084,22.8629273 C0.0621027099,28.05136 4.19212111,30.843977 8.46177651,33.4001239 L8.46177651,33.4026863 C9.41100703,33.9700681 10.3647541,34.5272005 11.2861325,35.0945824 C13.194003,36.2740046 14.9509451,37.5043082 16.1621362,39 L16.1628889,39 C16.192623,38.9637608 16.2231097,38.9300839 16.2532201,38.8931126 L16.2535965,38.8931126 C20.7554784,33.4960297 32.3223904,31.5281298 32.3223904,22.757138 L32.3284125,22.757138 L32.3284125,5.45931182 L36,0 L0.00075276012,0" id="Fill-4" fill="#FFFFFE"></path>
                            <path d="M2,23.5078882 C2.04890125,28.1826765 5.65288689,30.6993361 9.38188325,33 L9.38188325,21.1633672 L19.6750457,21.1633672 L19.6750457,14.2354267 L9.38188325,14.2354267 L9.38188325,9.59974417 L27.4485066,9.59974417 L32,3 L2,3 L2,23.5078882" id="Fill-5" fill="#12192F"></path>
                        </g>
                    </g>
                </g>
                <text id="FUSIONETICS" font-family="OpenSans-ExtraBold, Open Sans" font-size="24" font-weight="600" fill="#FDFDFD">
                    <tspan x="52" y="48">FUSIONETICS</tspan>
                </text>
                <text id="Welcome-to" font-family="OpenSans-Regular, Open Sans" font-size="12" font-weight="normal" fill="#FFFFFF">
                    <tspan x="52" y="23">Welcome to </tspan>
                </text>
            </g>
        </g>
    </g>
</svg>